<?xml version="1.0" encoding="UTF-8" standalone="no"?>
<!-- Created with Inkscape (http://www.inkscape.org/) -->

<svg
   width="1000mm"
   height="1000mm"
   viewBox="0 0 1000 1000"
   version="1.1"
   id="svg1"
   inkscape:version="1.3.2 (091e20e, 2023-11-25, custom)"
   sodipodi:docname="BitCode Logo.svg"
   xmlns:inkscape="http://www.inkscape.org/namespaces/inkscape"
   xmlns:sodipodi="http://sodipodi.sourceforge.net/DTD/sodipodi-0.dtd"
   xmlns="http://www.w3.org/2000/svg"
   xmlns:svg="http://www.w3.org/2000/svg">
  <sodipodi:namedview
     id="namedview1"
     pagecolor="#505050"
     bordercolor="#ffffff"
     borderopacity="1"
     inkscape:showpageshadow="0"
     inkscape:pageopacity="0"
     inkscape:pagecheckerboard="1"
     inkscape:deskcolor="#505050"
     inkscape:document-units="mm"
     inkscape:zoom="0.1280329"
     inkscape:cx="980.21678"
     inkscape:cy="1745.645"
     inkscape:window-width="1920"
     inkscape:window-height="1009"
     inkscape:window-x="1912"
     inkscape:window-y="-8"
     inkscape:window-maximized="1"
     inkscape:current-layer="layer1" />
  <defs
     id="defs1" />
  <g
     inkscape:label="Layer 1"
     inkscape:groupmode="layer"
     id="layer1">
    <text
       xml:space="preserve"
       style="font-size:1340.52px;fill:#000000;stroke-width:13.9638;fill-opacity:0"
       x="-2246.0161"
       y="901.18109"
       id="text1"><tspan
         sodipodi:role="line"
         style="font-style:normal;font-variant:normal;font-weight:normal;font-stretch:normal;font-size:1340.52px;font-family:'Newton Howard Font';-inkscape-font-specification:'Newton Howard Font';stroke-width:13.9638;fill:#000000;fill-opacity:0"
         x="-2246.0161"
         y="901.18109"
         id="tspan2">BITC  DE</tspan></text>
    <path
       id="rect3"
       style="fill:#ffffff;fill-opacity:1;stroke:none;stroke-width:97.6438;stroke-linecap:butt;stroke-linejoin:miter;stroke-dasharray:none;stroke-opacity:1;paint-order:normal"
       d="M 499.99997 57.51897 L 105.14397 397.61191 L 449.7033 694.38397 L 449.7033 567.16745 L 260.41305 397.61242 L 499.99997 183.0033 L 739.5869 397.61242 L 550.29664 567.16745 L 550.29664 694.38397 L 894.85597 397.61191 L 499.99997 57.51897 z " />
    <path
       id="rect3-7"
       style="fill:#ffffff;fill-opacity:1;stroke:none;stroke-width:97.6438;stroke-linecap:butt;stroke-linejoin:miter;stroke-dasharray:none;stroke-opacity:1;paint-order:normal"
       d="M 499.99997 271.99115 L 364.63769 388.5799 L 437.17693 453.74956 L 499.99997 397.476 L 562.82404 453.7506 L 635.41393 388.62434 L 499.99997 271.99115 z M 306.22679 438.88949 L 105.14397 612.08409 L 449.7033 908.8546 L 449.7033 781.63963 L 449.59478 781.54248 L 449.59478 574.49413 L 373.1333 574.49413 L 373.1333 713.0526 L 260.41305 612.0846 L 379.88689 505.06685 L 306.22679 438.88949 z M 693.83 438.9391 L 620.11822 505.0715 L 739.5869 612.0846 L 626.69043 713.21073 L 626.69043 607.68229 L 550.22895 607.68229 L 550.22895 839.13328 L 550.29664 839.13328 L 550.29664 908.8546 L 894.85597 612.08409 L 693.83 438.9391 z " />
  </g>
</svg>
