<?xml version="1.0" encoding="UTF-8" standalone="no"?>
<!-- Created with Inkscape (http://www.inkscape.org/) -->

<svg
   width="800mm"
   height="150mm"
   viewBox="0 0 800 150"
   version="1.1"
   id="svg1"
   inkscape:version="1.3.2 (091e20e, 2023-11-25, custom)"
   sodipodi:docname="LogoFull.svg"
   xmlns:inkscape="http://www.inkscape.org/namespaces/inkscape"
   xmlns:sodipodi="http://sodipodi.sourceforge.net/DTD/sodipodi-0.dtd"
   xmlns="http://www.w3.org/2000/svg"
   xmlns:svg="http://www.w3.org/2000/svg">
  <sodipodi:namedview
     id="namedview1"
     pagecolor="#505050"
     bordercolor="#ffffff"
     borderopacity="1"
     inkscape:showpageshadow="0"
     inkscape:pageopacity="0"
     inkscape:pagecheckerboard="1"
     inkscape:deskcolor="#505050"
     inkscape:document-units="mm"
     inkscape:zoom="0.25606581"
     inkscape:cx="1191.1001"
     inkscape:cy="501.82412"
     inkscape:window-width="1920"
     inkscape:window-height="1009"
     inkscape:window-x="1912"
     inkscape:window-y="-8"
     inkscape:window-maximized="1"
     inkscape:current-layer="layer1" />
  <defs
     id="defs1" />
  <g
     inkscape:label="Layer 1"
     inkscape:groupmode="layer"
     id="layer1">
    <path
       style="font-size:214.647px;font-family:'Newton Howard Font';-inkscape-font-specification:'Newton Howard Font';fill:#ffffff;stroke-width:2.23594"
       d="m 106.72385,138.87819 c 24.46975,0 38.20716,-20.39147 38.20716,-37.77787 0,-0.4293 0,-0.64394 0,-1.07324 -0.21464,-11.161643 -5.58082,-21.679346 -17.38641,-28.333403 4.72224,-6.010116 7.298,-11.161644 7.51265,-15.239937 0.42929,-4.078293 0.64394,-6.654057 0.64394,-7.727292 0,-5.795469 -1.50253,-11.590938 -4.07829,-16.957113 C 126.25672,20.60769 114.02184,11.163222 97.708672,11.163222 H 53.920683 l -3.648999,5.366175 C 45.764097,23.398101 39.324687,32.413276 38.895393,33.486511 h 58.813279 c 4.507588,0 8.156588,1.287882 10.732348,3.648999 5.15153,5.151528 4.93688,10.088409 4.93688,12.020232 0,4.936881 -1.71717,12.020232 -8.58588,16.957113 H 53.491389 c -2.361117,3.648999 -4.722234,6.868704 -6.654057,9.873762 -3.434352,5.151528 -7.083351,10.517703 -7.727292,11.590938 h 67.61381 c 19.96217,0 19.96217,28.977345 0,28.977345 H 54.13533 c -1.717176,2.36112 -5.366175,7.94194 -8.800527,12.87882 -1.931823,2.79041 -4.078293,6.01012 -6.43941,9.44447 z m 77.91702,0 V 11.377869 H 162.31758 V 138.87819 Z m 13.9522,-105.391679 h 38.42182 V 138.87819 h 22.32329 V 33.486511 h 28.97734 c 2.36112,-3.219706 6.01012,-8.800528 9.22982,-13.737409 1.93183,-2.790411 3.86365,-5.580822 5.79547,-8.58588 h -89.5078 c -2.36112,3.219705 -6.01012,8.58588 -9.22982,13.522761 -1.93182,2.790411 -3.86365,5.580822 -6.01012,8.800528 z m 102.38632,65.252688 c 9.44447,22.323291 30.26523,37.777871 57.09611,39.924341 1.93182,0 3.86364,0.21465 5.79547,0.21465 h 18.03034 c 2.36112,-3.43435 13.73741,-19.96217 14.81065,-21.67935 h -30.90917 c -24.04046,0 -44.86122,-15.88388 -44.86122,-42.500105 0,-24.684405 18.67429,-41.856165 43.14404,-41.856165 h 18.03035 c 0.85859,-1.073235 1.71718,-2.146471 2.36112,-3.434353 1.50253,-2.361117 3.00506,-4.722234 4.93688,-7.512645 l 7.298,-10.73235 h -34.55817 c -36.70464,1.073235 -65.89663,27.26017 -65.89663,63.535513 0,8.58588 1.50253,16.527819 4.72223,24.040464 z M 543.95951,32.84257 h 53.8764 c 24.04046,0 40.56828,19.103583 40.56828,42.070812 0,23.181876 -16.74246,42.285458 -40.56828,42.285458 h -39.2804 c -0.21465,0.21465 -3.86365,5.58082 -7.51265,10.947 -2.14647,3.2197 -4.50759,6.65406 -7.08335,10.73235 h 53.8764 c 35.20211,0 65.25269,-28.11876 65.25269,-63.964808 0,-33.055638 -26.18694,-60.101161 -58.81328,-63.535513 -2.36112,0 -4.0783,-0.214647 -6.43941,-0.214647 h -39.2804 z m 209.28092,106.03562 14.59599,-21.894 c 0.21465,-0.21464 0.21465,-0.21464 0.21465,-0.42929 H 702.58373 V 86.718967 h 39.2804 L 756.67478,64.610326 H 680.26044 V 138.87819 Z M 680.26044,33.486511 h 72.55069 c 1.50253,-1.931824 5.15153,-7.512646 8.58588,-12.664174 l 6.43941,-9.659115 h -87.57598 z"
       id="text1"
       aria-label="BITC  DE" />
    <path
       id="rect3"
       style="fill:#ffffff;fill-opacity:1;stroke:none;stroke-width:15.6349;stroke-linecap:butt;stroke-linejoin:miter;stroke-dasharray:none;stroke-opacity:1;paint-order:normal"
       d="M 466.78754,3.7892908 403.5624,58.245671 458.73394,105.76542 V 85.395248 L 428.42439,58.24575 466.78754,23.8821 505.15069,58.24575 474.84114,85.395248 v 20.370172 l 55.17154,-47.519749 z" />
    <path
       id="rect3-7"
       style="fill:#ffffff;fill-opacity:1;stroke:none;stroke-width:15.6349;stroke-linecap:butt;stroke-linejoin:miter;stroke-dasharray:none;stroke-opacity:1;paint-order:normal"
       d="m 466.78754,38.131014 -21.67447,18.668429 11.61513,10.435099 10.05934,-9.010633 10.05951,9.010805 11.62324,-10.428155 z m -31.02735,26.724108 -32.19779,27.732274 55.17154,47.519494 v -20.36992 l -0.0174,-0.0156 V 86.568375 h -12.24319 v 22.186265 l -18.049,-16.167202 19.13042,-17.135901 z m 62.06381,0.008 -11.80286,10.589257 19.12955,17.135155 -18.07722,16.192526 V 91.882594 H 474.83033 V 128.943 h 0.0108 v 11.16391 l 55.17155,-47.519493 z" />
  </g>
</svg>
